<svg id="visual" viewBox="0 0 960 540" width="960" height="540" xmlns="http://www.w3.org/2000/svg" xmlns:xlink="http://www.w3.org/1999/xlink" version="1.1"><rect x="0" y="0" width="960" height="540" fill="#D9FFF5"></rect><defs><linearGradient id="grad1_0" x1="43.8%" y1="100%" x2="100%" y2="0%"><stop offset="14.444444444444446%" stop-color="#d9fff5" stop-opacity="1"></stop><stop offset="85.55555555555554%" stop-color="#d9fff5" stop-opacity="1"></stop></linearGradient></defs><defs><linearGradient id="grad2_0" x1="0%" y1="100%" x2="56.3%" y2="0%"><stop offset="14.444444444444446%" stop-color="#d9fff5" stop-opacity="1"></stop><stop offset="85.55555555555554%" stop-color="#d9fff5" stop-opacity="1"></stop></linearGradient></defs><g transform="translate(960, 540)"><path d="M-243 0C-234.1 -30.7 -225.3 -61.4 -211.6 -87.6C-197.9 -113.9 -179.3 -135.7 -159.8 -159.8C-140.3 -183.9 -119.8 -210.3 -93 -224.5C-66.2 -238.7 -33.1 -240.9 0 -243L0 0Z" fill="#283044"></path></g><g transform="translate(0, 0)"><path d="M243 0C219.1 23.7 195.1 47.5 185.7 76.9C176.3 106.4 181.3 141.5 168.3 168.3C155.2 195.1 124.1 213.4 93 224.5C61.9 235.6 31 239.3 0 243L0 0Z" fill="#283044"></path></g></svg>